<svg width="110" height="84" viewBox="0 0 110 84" fill="none" xmlns="http://www.w3.org/2000/svg">
<g filter="url(#filter0_d_4789_61)">
<path d="M72.1047 14.2092C74.7928 20.0511 75.2595 25.7269 72.6509 31.371C68.7123 39.889 59.2578 41.7064 52.489 35.1878C46.4758 29.3972 45.098 22.2411 47.4996 14.4437C48.9888 9.60582 52.3175 6.22868 57.4893 5.38103C62.8449 4.50286 66.8949 7.05434 70.1329 11.0654C70.9645 12.0962 71.5548 13.3213 72.1047 14.2092Z" fill="url(#paint0_linear_4789_61)"/>
<path d="M17.3578 42.1803C12.7958 32.9967 15.5771 24.155 23.3832 21.882C30.5819 19.7861 36.3048 22.8408 40.901 28.0451C45.4532 33.1994 47.2865 39.2318 44.4991 45.9104C42.6266 50.3953 38.0781 52.9529 32.97 52.6024C25.4517 52.0858 20.4721 47.8268 17.3578 42.1803Z" fill="url(#paint1_linear_4789_61)"/>
<path d="M30.4251 62.128C33.7146 68.5525 30.3173 75.3276 22.9497 76.6284C16.4295 77.7801 10.9245 75.7099 6.82674 70.4726C2.65793 65.1449 4.4827 58.1072 10.6318 55.2748C17.5023 52.1102 26.9764 55.3908 30.4251 62.128Z" fill="url(#paint2_linear_4789_61)"/>
<path d="M92.9622 42.2939C87.8467 44.7867 82.6063 42.9571 80.1643 37.826C76.8772 30.9215 80.3284 21.5119 87.2993 18.3742C92.378 16.0877 97.7813 18.1946 99.9809 23.3184C102.889 30.0897 99.5657 39.0767 92.9622 42.2939Z" fill="url(#paint3_linear_4789_61)"/>
</g>
<defs>
<filter id="filter0_d_4789_61" x="0.576172" y="0.208008" width="108.463" height="83.7295" filterUnits="userSpaceOnUse" color-interpolation-filters="sRGB">
<feFlood flood-opacity="0" result="BackgroundImageFix"/>
<feColorMatrix in="SourceAlpha" type="matrix" values="0 0 0 0 0 0 0 0 0 0 0 0 0 0 0 0 0 0 127 0" result="hardAlpha"/>
<feOffset dx="2" dy="1"/>
<feGaussianBlur stdDeviation="3"/>
<feComposite in2="hardAlpha" operator="out"/>
<feColorMatrix type="matrix" values="0 0 0 0 0.129412 0 0 0 0 0.2 0 0 0 0 0.301961 0 0 0 0.25 0"/>
<feBlend mode="normal" in2="BackgroundImageFix" result="effect1_dropShadow_4789_61"/>
<feBlend mode="normal" in="SourceGraphic" in2="effect1_dropShadow_4789_61" result="shape"/>
</filter>
<linearGradient id="paint0_linear_4789_61" x1="80.436" y1="16.1763" x2="43.6261" y2="90.1277" gradientUnits="userSpaceOnUse">
<stop stop-color="#3FB3DA"/>
<stop offset="1" stop-color="#3A6CAC"/>
</linearGradient>
<linearGradient id="paint1_linear_4789_61" x1="80.436" y1="16.1763" x2="43.6261" y2="90.1277" gradientUnits="userSpaceOnUse">
<stop stop-color="#3FB3DA"/>
<stop offset="1" stop-color="#3A6CAC"/>
</linearGradient>
<linearGradient id="paint2_linear_4789_61" x1="80.436" y1="16.1763" x2="43.6261" y2="90.1277" gradientUnits="userSpaceOnUse">
<stop stop-color="#3FB3DA"/>
<stop offset="1" stop-color="#3A6CAC"/>
</linearGradient>
<linearGradient id="paint3_linear_4789_61" x1="80.436" y1="16.1763" x2="43.6261" y2="90.1277" gradientUnits="userSpaceOnUse">
<stop stop-color="#3FB3DA"/>
<stop offset="1" stop-color="#3A6CAC"/>
</linearGradient>
</defs>
</svg>
